<svg width="25" height="25" viewBox="0 0 25 25" fill="none" xmlns="http://www.w3.org/2000/svg">
<path d="M25 17.5781V1.17188C25 0.522461 24.4029 0 23.6607 0H5.35714C2.39955 0 0 2.09961 0 4.6875V20.3125C0 22.9004 2.39955 25 5.35714 25H23.6607C24.4029 25 25 24.4775 25 23.8281V23.0469C25 22.6807 24.8047 22.3486 24.5033 22.1338C24.269 21.3818 24.269 19.2383 24.5033 18.4863C24.8047 18.2764 25 17.9443 25 17.5781ZM7.14286 6.54297C7.14286 6.38184 7.29353 6.25 7.47768 6.25H19.308C19.4922 6.25 19.6429 6.38184 19.6429 6.54297V7.51953C19.6429 7.68066 19.4922 7.8125 19.308 7.8125H7.47768C7.29353 7.8125 7.14286 7.68066 7.14286 7.51953V6.54297ZM7.14286 9.66797C7.14286 9.50684 7.29353 9.375 7.47768 9.375H19.308C19.4922 9.375 19.6429 9.50684 19.6429 9.66797V10.6445C19.6429 10.8057 19.4922 10.9375 19.308 10.9375H7.47768C7.29353 10.9375 7.14286 10.8057 7.14286 10.6445V9.66797ZM21.2835 21.875H5.35714C4.36942 21.875 3.57143 21.1768 3.57143 20.3125C3.57143 19.4531 4.375 18.75 5.35714 18.75H21.2835C21.1775 19.585 21.1775 21.04 21.2835 21.875Z" fill="#7C7C7C"/>
</svg>
