<svg width="26" height="26" viewBox="0 0 26 26" fill="none" xmlns="http://www.w3.org/2000/svg">
<g clip-path="url(#clip0_364_276)">
<path d="M21.9355 15.3535H9.2122L9.49627 16.7424H21.1464C21.8148 16.7424 22.3102 17.3631 22.1621 18.015L21.9227 19.0686C22.7339 19.4624 23.2933 20.294 23.2933 21.2563C23.2933 22.6106 22.1857 23.7062 20.827 23.6866C19.5326 23.668 18.468 22.6176 18.4331 21.3235C18.414 20.6166 18.6972 19.9759 19.1624 19.5202H10.0631C10.5135 19.9614 10.7933 20.576 10.7933 21.2563C10.7933 22.6371 9.64189 23.749 8.24684 23.6842C7.00812 23.6267 6.0007 22.6258 5.93559 21.3874C5.88533 20.4311 6.38855 19.5882 7.15309 19.1485L4.10417 4.24244H1.07106C0.495751 4.24244 0.0293884 3.77608 0.0293884 3.20077V2.50633C0.0293884 1.93102 0.495751 1.46466 1.07106 1.46466H5.5211C6.01593 1.46466 6.44245 1.81279 6.54163 2.29756L6.93946 4.24244H23.9873C24.6557 4.24244 25.1512 4.86314 25.003 5.51496L22.9513 14.5427C22.8435 15.017 22.4219 15.3535 21.9355 15.3535ZM17.7377 8.75633H15.6544V7.02022C15.6544 6.63667 15.3435 6.32577 14.9599 6.32577H14.2655C13.8819 6.32577 13.5711 6.63667 13.5711 7.02022V8.75633H11.4877C11.1042 8.75633 10.7933 9.06722 10.7933 9.45077V10.1452C10.7933 10.5288 11.1042 10.8397 11.4877 10.8397H13.5711V12.5758C13.5711 12.9593 13.8819 13.2702 14.2655 13.2702H14.9599C15.3435 13.2702 15.6544 12.9593 15.6544 12.5758V10.8397H17.7377C18.1213 10.8397 18.4322 10.5288 18.4322 10.1452V9.45077C18.4322 9.06722 18.1213 8.75633 17.7377 8.75633Z" fill="#ffffff"/>
</g>
<defs>
<clipPath id="clip0_364_276">
<rect width="25" height="25" fill="white" transform="translate(0.0293884 0.0757446)"/>
</clipPath>
</defs>
</svg>
