<svg width="18" height="18" viewBox="0 0 18 18" fill="none" xmlns="http://www.w3.org/2000/svg">
<path d="M13.9093 0.651094L8.9375 5.62294L3.96565 0.651094C3.35557 0.0410077 2.36603 0.0410077 1.75595 0.651094L0.651092 1.75595C0.0410051 2.36604 0.0410051 3.35557 0.651092 3.96566L5.62294 8.9375L0.651092 13.9093C0.0410051 14.5194 0.0410051 15.509 0.651092 16.1191L1.75595 17.2239C2.36603 17.834 3.35557 17.834 3.96565 17.2239L8.9375 12.2521L13.9093 17.2239C14.5194 17.834 15.509 17.834 16.1191 17.2239L17.2239 16.1191C17.834 15.509 17.834 14.5194 17.2239 13.9093L12.2521 8.9375L17.2239 3.96566C17.834 3.35557 17.834 2.36604 17.2239 1.75595L16.1191 0.651094C15.509 0.0410077 14.5194 0.0410077 13.9093 0.651094Z" fill="#7C7C7C"/>
</svg>
