<svg width="98" height="98" viewBox="0 0 98 98" fill="none" xmlns="http://www.w3.org/2000/svg">
<path d="M70.0295 62.7696C69.1501 63.7785 68.1679 64.6921 67.003 65.3679V69.7345C79.665 71.5124 88.3221 75.0738 88.3221 79.1853C88.3221 85.0728 70.5968 89.8449 48.7294 89.8449C26.8621 89.8449 9.13677 85.0728 9.13677 79.1853C9.13677 75.0738 17.7939 71.5143 30.4559 69.7345V65.3679C29.291 64.6921 28.3088 63.7785 27.4293 62.7696C11.2059 65.7352 0 71.9616 0 79.1853C0 89.2777 21.8178 97.4589 48.7294 97.4589C75.641 97.4589 97.4589 89.2777 97.4589 79.1853C97.4589 71.9616 86.253 65.7352 70.0295 62.7696ZM48.7294 24.3647C55.4583 24.3647 60.9118 18.9112 60.9118 12.1824C60.9118 5.45351 55.4583 0 48.7294 0C42.0006 0 36.5471 5.45351 36.5471 12.1824C36.5471 18.9112 42.0006 24.3647 48.7294 24.3647ZM36.5471 60.9118V79.1853C36.5471 82.5488 39.2748 85.2765 42.6383 85.2765H54.8206C58.1841 85.2765 60.9118 82.5488 60.9118 79.1853V60.9118C64.2753 60.9118 67.003 58.1841 67.003 54.8206V36.5471C67.003 31.5009 62.9124 27.4103 57.8662 27.4103H55.6201C53.5129 28.3678 51.1926 28.9331 48.7294 28.9331C46.2663 28.9331 43.946 28.3678 41.8388 27.4103H39.5927C34.5465 27.4103 30.4559 31.5009 30.4559 36.5471V54.8206C30.4559 58.1841 33.1836 60.9118 36.5471 60.9118Z" fill="black"/>
</svg>
