<svg width="98" height="109" viewBox="0 0 98 109" fill="none" xmlns="http://www.w3.org/2000/svg">
<path d="M43.3151 53.5969V81.2102C43.3151 82.6462 43.8855 84.0234 44.9009 85.0388C45.9163 86.0541 47.2935 86.6246 48.7294 86.6246C50.1654 86.6246 51.5426 86.0541 52.558 85.0388C53.5734 84.0234 54.1438 82.6462 54.1438 81.2102V53.5969C60.7171 52.2551 66.558 48.5204 70.5342 43.1168C74.5104 37.7133 76.3385 31.0258 75.6642 24.3509C74.99 17.6761 71.8612 11.4894 66.8847 6.9902C61.9081 2.49105 55.4383 0 48.7294 0C42.0206 0 35.5507 2.49105 30.5742 6.9902C25.5976 11.4894 22.4689 17.6761 21.7946 24.3509C21.1203 31.0258 22.9485 37.7133 26.9247 43.1168C30.9008 48.5204 36.7418 52.2551 43.3151 53.5969ZM48.7294 10.8232C51.942 10.8232 55.0825 11.7759 57.7536 13.5607C60.4248 15.3455 62.5067 17.8824 63.7361 20.8504C64.9655 23.8184 65.2872 27.0844 64.6605 30.2353C64.0337 33.3861 62.4867 36.2804 60.2151 38.552C57.9434 40.8237 55.0492 42.3707 51.8983 42.9974C48.7475 43.6242 45.4815 43.3025 42.5135 42.0731C39.5454 40.8437 37.0086 38.7618 35.2238 36.0906C33.4389 33.4194 32.4863 30.279 32.4863 27.0664C32.4863 22.7584 34.1976 18.6269 37.2438 15.5807C40.29 12.5346 44.4215 10.8232 48.7294 10.8232ZM71.524 67.2411C70.8129 67.0918 70.0795 67.084 69.3654 67.2181C68.6514 67.3523 67.9708 67.6257 67.3624 68.0229C66.7541 68.4201 66.2299 68.9333 65.8198 69.533C65.4098 70.1328 65.1219 70.8074 64.9726 71.5185C64.8233 72.2295 64.8155 72.963 64.9496 73.677C65.0838 74.391 65.3572 75.0717 65.7544 75.68C66.1516 76.2884 66.6647 76.8125 67.2645 77.2226C67.8643 77.6326 68.5389 77.9205 69.2499 78.0699C81.5406 80.5063 86.6301 84.892 86.6301 86.6246C86.6301 89.7649 73.3649 97.4534 48.7294 97.4534C24.094 97.4534 10.8288 89.7649 10.8288 86.6246C10.8288 84.892 15.9183 80.5063 28.2089 77.8533C28.92 77.704 29.5946 77.4161 30.1944 77.006C30.7941 76.596 31.3073 76.0718 31.7044 75.4635C32.1016 74.8551 32.3751 74.1745 32.5093 73.4604C32.6434 72.7464 32.6356 72.0129 32.4863 71.3019C32.337 70.5909 32.0491 69.9162 31.639 69.3164C31.229 68.7167 30.7048 68.2036 30.0965 67.8064C29.4881 67.4092 28.8075 67.1357 28.0934 67.0016C27.3794 66.8674 26.6459 66.8752 25.9349 67.0245C9.47517 70.8146 0 77.9074 0 86.6246C0 100.864 24.5271 108.282 48.7294 108.282C72.9317 108.282 97.4589 100.864 97.4589 86.6246C97.4589 77.9074 87.9837 70.8146 71.524 67.2411Z" fill="black"/>
</svg>
