<svg width="26" height="22" viewBox="0 0 26 22" fill="none" xmlns="http://www.w3.org/2000/svg">
<path d="M12.6553 5.70738L4.33368 13.1651V21.2142C4.33368 21.4226 4.40976 21.6225 4.54519 21.7698C4.68063 21.9172 4.86431 22 5.05584 22L10.1137 21.9858C10.3046 21.9847 10.4874 21.9015 10.622 21.7542C10.7567 21.607 10.8323 21.4077 10.8323 21.2V16.4994C10.8323 16.291 10.9084 16.0911 11.0438 15.9437C11.1792 15.7964 11.3629 15.7136 11.5544 15.7136H14.4431C14.6346 15.7136 14.8183 15.7964 14.9538 15.9437C15.0892 16.0911 15.1653 16.291 15.1653 16.4994V21.1965C15.165 21.2999 15.1834 21.4024 15.2196 21.498C15.2558 21.5936 15.3089 21.6805 15.376 21.7538C15.4431 21.827 15.5228 21.8851 15.6106 21.9247C15.6983 21.9644 15.7924 21.9848 15.8874 21.9848L20.9435 22C21.135 22 21.3187 21.9172 21.4542 21.7698C21.5896 21.6225 21.6657 21.4226 21.6657 21.2142V13.1597L13.3459 5.70738C13.2481 5.62159 13.1262 5.57481 13.0006 5.57481C12.8749 5.57481 12.7531 5.62159 12.6553 5.70738ZM25.8001 10.7763L22.0268 7.39194V0.589351C22.0268 0.433046 21.9697 0.283142 21.8681 0.172617C21.7665 0.0620923 21.6288 0 21.4851 0H18.9575C18.8139 0 18.6761 0.0620923 18.5746 0.172617C18.473 0.283142 18.4159 0.433046 18.4159 0.589351V4.15542L14.375 0.537783C13.9872 0.190547 13.5005 0.000694131 12.9983 0.000694131C12.4961 0.000694131 12.0095 0.190547 11.6217 0.537783L0.196564 10.7763C0.141719 10.8256 0.0963433 10.8862 0.0630297 10.9546C0.0297162 11.023 0.0091177 11.0979 0.0024112 11.175C-0.00429529 11.2521 0.00302166 11.3299 0.023944 11.4039C0.0448663 11.4779 0.0789839 11.5466 0.124347 11.6063L1.2753 13.1288C1.32054 13.1886 1.37619 13.2382 1.43905 13.2746C1.50192 13.3111 1.57077 13.3336 1.64166 13.3411C1.71256 13.3485 1.7841 13.3407 1.8522 13.318C1.92031 13.2953 1.98363 13.2582 2.03854 13.2088L12.6553 3.69376C12.7531 3.60797 12.8749 3.56119 13.0006 3.56119C13.1262 3.56119 13.2481 3.60797 13.3459 3.69376L23.9631 13.2088C24.0179 13.2582 24.0811 13.2953 24.1491 13.3181C24.2171 13.3409 24.2886 13.3488 24.3594 13.3415C24.4303 13.3342 24.4991 13.3118 24.562 13.2756C24.6248 13.2393 24.6805 13.1899 24.7259 13.1303L25.8768 11.6078C25.9221 11.5478 25.9561 11.4786 25.9768 11.4043C25.9974 11.33 26.0044 11.2519 25.9973 11.1747C25.9902 11.0974 25.9691 11.0224 25.9352 10.9541C25.9014 10.8857 25.8554 10.8253 25.8001 10.7763Z" fill="#7C7C7C"/>
</svg>
